<svg xmlns="http://www.w3.org/2000/svg" width="39" height="37" viewBox="0 0 39 37"><path fill="#fff" d="M35.52 9.19A18.4 18.4 0 0 0 19.5 0 18.4 18.4 0 0 0 1 18.45 17.9 17.9 0 0 0 4.53 29.3a18.17 18.17 0 0 0 9.11 6.67c.44.08.76.02.97-.17.2-.19.31-.43.31-.72a506.8 506.8 0 0 0-.02-3.44l-.56.1a8.98 8.98 0 0 1-3.01-.09 3.66 3.66 0 0 1-1.61-.72 3 3 0 0 1-1.06-1.47l-.24-.56a6.2 6.2 0 0 0-.76-1.22c-.35-.45-.7-.75-1.05-.91l-.17-.12a1.81 1.81 0 0 1-.31-.29c-.1-.12-.17-.23-.22-.34-.05-.11 0-.2.12-.28.13-.07.36-.1.7-.1l.48.07c.32.06.72.25 1.2.57.47.32.86.74 1.16 1.25.37.66.82 1.16 1.34 1.51.52.34 1.05.51 1.58.51s.99-.04 1.37-.12c.39-.08.75-.2 1.09-.36.14-1.07.53-1.9 1.18-2.47-.92-.1-1.74-.24-2.47-.44a9.8 9.8 0 0 1-2.27-.93 6.6 6.6 0 0 1-1.94-1.61 7.77 7.77 0 0 1-1.26-2.53c-.33-1.04-.5-2.24-.5-3.6a7 7 0 0 1 1.9-4.95c-.59-1.46-.53-3.09.18-4.9.46-.15 1.15-.04 2.07.32a13.9 13.9 0 0 1 3.03 1.58 17.01 17.01 0 0 1 9.26 0l.91-.58c.63-.39 1.37-.74 2.22-1.06.85-.32 1.5-.41 1.95-.26.72 1.81.79 3.44.2 4.9a7 7 0 0 1 1.9 4.95c0 1.36-.17 2.57-.5 3.62a7.4 7.4 0 0 1-1.28 2.52 6.9 6.9 0 0 1-1.95 1.6c-.78.43-1.53.74-2.26.93-.73.2-1.56.34-2.47.44.83.72 1.25 1.86 1.25 3.41v5.07c0 .29.1.53.3.72.2.19.52.25.95.17a18.17 18.17 0 0 0 9.12-6.67A17.9 17.9 0 0 0 38 18.45c0-3.35-.83-6.43-2.48-9.26z"/></svg>