<svg xmlns="http://www.w3.org/2000/svg" width="35" height="28" viewBox="0 0 35 28"><path fill="#fff" d="M3.36 8.63l4 2.83 5.12 3.63.83.61 1.06.76c.27.19.61.4 1.01.64s.77.42 1.12.54c.36.12.68.18.98.18h.04c.3 0 .63-.06.98-.18s.72-.3 1.12-.54c.4-.24.74-.45 1.02-.64l1.05-.76.83-.61 9.14-6.46a9.36 9.36 0 0 0 2.38-2.45 5.3 5.3 0 0 0 .96-3c0-.88-.31-1.63-.93-2.25a3 3 0 0 0-2.2-.93H3.13c-1 0-1.77.34-2.31 1.03A4.07 4.07 0 0 0 0 3.62c0 .83.36 1.74 1.07 2.71a9.76 9.76 0 0 0 2.29 2.3zm29.69 2.13a401.04 401.04 0 0 0-11.54 8.16c-.46.31-1.07.63-1.84.96-.77.32-1.49.48-2.15.48h-.04c-.66 0-1.38-.16-2.15-.48a11.6 11.6 0 0 1-1.84-.96 396.17 396.17 0 0 0-11.51-8.16A10.6 10.6 0 0 1 0 9.03v15.79c0 .88.3 1.62.92 2.25.61.62 1.35.93 2.2.93h28.75c.86 0 1.6-.31 2.21-.93a3.1 3.1 0 0 0 .92-2.25V9.03c-.56.63-1.21 1.21-1.95 1.73z"/></svg>