<?xml version="1.0" encoding="utf-8"?>
<!-- Generator: Adobe Illustrator 19.0.1, SVG Export Plug-In . SVG Version: 6.00 Build 0)  -->
<svg version="1.1" id="Layer_1" xmlns="http://www.w3.org/2000/svg" xmlns:xlink="http://www.w3.org/1999/xlink" x="0px" y="0px"
	 viewBox="0 0 60 60" style="enable-background:new 0 0 60 60;" xml:space="preserve">
<style type="text/css">
	.st0{fill:#262626;}
	.st1{fill:#FFFFFF;}
	.st2{clip-path:url(#SVGID_2_);}
	.st3{fill:#0F0F0F;}
	.st4{clip-path:url(#SVGID_4_);}
	.st5{clip-path:url(#SVGID_6_);}
	.st6{fill:#00ABCF;}
</style>
<path class="st6" d="M33.1,60h-6.1c-0.3,0-0.6-0.3-0.6-0.6v-6.7c-1.6-0.2-3.1-0.6-4.6-1.2l-3.3,5.7c-0.1,0.1-0.2,0.2-0.3,0.3
	c-0.1,0-0.3,0-0.4-0.1l-5.3-3.1c-0.3-0.2-0.4-0.5-0.2-0.8l3.3-5.7c-1.2-1-2.4-2.1-3.4-3.3L6.4,48C6.3,48,6.1,48,6,48
	c-0.1,0-0.3-0.1-0.3-0.3l-3.1-5.3c-0.2-0.3-0.1-0.6,0.2-0.8l5.6-3.3c-0.6-1.5-1-3.1-1.3-4.8H0.6c-0.3,0-0.6-0.3-0.6-0.6v-6.1
	c0-0.3,0.3-0.6,0.6-0.6h6.5c0.3-1.6,0.7-3.2,1.3-4.7l-5.6-3.3c-0.1-0.1-0.2-0.2-0.3-0.3c0-0.1,0-0.3,0.1-0.4l3.1-5.3
	c0.2-0.3,0.5-0.4,0.8-0.2l5.7,3.3c1.1-1.3,2.2-2.4,3.5-3.5l-3.3-5.7c-0.1-0.1-0.1-0.3-0.1-0.4c0-0.1,0.1-0.3,0.3-0.3l5.3-3
	c0.3-0.2,0.6-0.1,0.8,0.2l3.3,5.7c1.5-0.5,3-0.9,4.5-1.2V0.6c0-0.3,0.3-0.6,0.6-0.6h6.1c0.3,0,0.6,0.3,0.6,0.6v6.7
	c1.6,0.3,3.1,0.7,4.6,1.3l3.4-5.9c0.2-0.3,0.5-0.4,0.8-0.2l5.3,3.1c0.3,0.2,0.4,0.5,0.2,0.8l-3.4,5.9c1.2,1,2.3,2.1,3.2,3.3l5.9-3.4
	c0.3-0.2,0.6-0.1,0.8,0.2l3.1,5.3c0.1,0.1,0.1,0.3,0.1,0.4c0,0.1-0.1,0.3-0.3,0.3l-5.9,3.5c0.6,1.5,1,3,1.2,4.6h6.9
	c0.3,0,0.6,0.3,0.6,0.6v6.1c0,0.3-0.3,0.6-0.6,0.6h-6.9c-0.2,1.5-0.6,3.1-1.2,4.5l6,3.4c0.3,0.2,0.4,0.5,0.2,0.8l-3.1,5.3
	c-0.2,0.3-0.5,0.4-0.8,0.2l-5.9-3.4c-1,1.2-2.1,2.4-3.4,3.4l3.4,5.9c0.2,0.3,0.1,0.6-0.2,0.8l-5.3,3c-0.1,0.1-0.3,0.1-0.4,0.1
	c-0.1,0-0.3-0.1-0.3-0.3l-3.3-5.9c-1.4,0.6-2.9,1-4.4,1.2v6.7C33.6,59.7,33.4,60,33.1,60z M27.5,58.9h5v-10H28l-0.5,0.5L27.5,58.9
	L27.5,58.9z M38.9,50.7l3.2,5.6l4.4-2.5l-5-8.7l-3.9,2.2L37.4,48l1.4,2.5C38.9,50.6,38.9,50.6,38.9,50.7z M13.4,53.7l4.3,2.5
	l3.2-5.5c0-0.1,0-0.1,0.1-0.2l1.8-3l-3.9-2.2l-0.7,0.2L13.4,53.7z M22.3,50.6c1.3,0.5,2.7,0.8,4.1,1V49c0-0.1,0.1-0.3,0.2-0.4
	l0.8-0.8c0.1-0.1,0.2-0.2,0.4-0.2h5.3c0.3,0,0.6,0.3,0.6,0.6v3.4c1.3-0.2,2.6-0.6,3.9-1.1l-1.2-2.1c-0.1-0.1-0.1-0.2-0.1-0.3
	c0-0.1,0-0.1,0-0.2l0.3-1.2c0-0.1,0.1-0.3,0.3-0.3l4.6-2.6c0.1-0.1,0.3-0.1,0.4-0.1c0.1,0,0.3,0.1,0.3,0.3l1.6,2.8
	c1.1-0.9,2-1.9,2.9-2.9L44,42.3c-0.1-0.1-0.2-0.2-0.3-0.3c0-0.1,0-0.1,0-0.2c0-0.1,0-0.2,0.1-0.3l3.1-5.3c0.2-0.3,0.5-0.4,0.8-0.2
	l2.8,1.6c0.5-1.3,0.8-2.5,1-3.9h-3.1c-0.3,0-0.6-0.3-0.6-0.6v-0.9h-3.9c-0.3,0-0.6-0.3-0.6-0.6v-1.1h-0.7v1.1c0,0.3-0.3,0.6-0.6,0.6
	h-2.8c-0.3,0-0.6-0.3-0.6-0.6v-1.1h-1v1.1c0,0.3-0.3,0.6-0.6,0.6h-2.1l-0.1,0.3H35c0.1,0,0.1,0,0.2,0l1.5,0.5
	c0.2,0.1,0.4,0.2,0.4,0.5l0.1,0.8c0.1,0.9,0.2,2.7,0.2,2.7c0,0.3-0.2,0.5-0.4,0.6l-4.6,1.3c-0.2,0.1-0.4,0-0.5-0.1l-0.6-0.5h-2.8
	l-0.6,0.5c-0.1,0.1-0.3,0.2-0.5,0.1l-4.6-1.3c-0.3-0.1-0.4-0.3-0.4-0.6c0-0.1,0.1-1.9,0.2-2.7l0.1-0.8c0-0.2,0.2-0.4,0.4-0.5
	l1.5-0.5c0.1,0,0.1,0,0.2,0h0.2l-0.2-0.9c0,0,0-0.1,0-0.1v-3c0,0,0-0.1,0-0.1l0.2-0.9h-0.2c-0.1,0-0.1,0-0.2,0L23,26.9
	c-0.2-0.1-0.4-0.2-0.4-0.5l-0.1-0.8c-0.1-0.9-0.2-2.7-0.2-2.7c0-0.3,0.2-0.5,0.4-0.6l4.6-1.3c0.2-0.1,0.4,0,0.5,0.1l0.6,0.5h2.8
	l0.6-0.5c0.1-0.1,0.3-0.2,0.5-0.1l4.6,1.3c0.3,0.1,0.4,0.3,0.4,0.6c0,0.1-0.1,1.9-0.2,2.7L37,26.5c0,0.2-0.2,0.4-0.4,0.5l-1.5,0.5
	c-0.1,0-0.1,0-0.2,0h-0.2l0.1,0.5H37c0.3,0,0.6,0.3,0.6,0.6v0.9h1v-0.9c0-0.3,0.3-0.6,0.6-0.6h2.8c0.3,0,0.6,0.3,0.6,0.6v0.9h0.7
	v-0.9c0-0.3,0.3-0.6,0.6-0.6h3.9v-0.2c0-0.1,0.1-0.3,0.2-0.4l0.8-0.8c0.1-0.1,0.2-0.2,0.4-0.2h2.3c-0.2-1.3-0.6-2.6-1.1-3.9L47.6,24
	c-0.1,0.1-0.3,0.1-0.4,0.1c-0.1,0-0.3-0.1-0.3-0.3l-3.1-5.3c-0.1-0.1-0.1-0.2-0.1-0.3c0-0.1,0-0.1,0-0.2c0-0.1,0.1-0.3,0.3-0.3
	l2.7-1.6c-0.8-1-1.8-1.9-2.8-2.8L42.3,16c-0.1,0.1-0.2,0.2-0.3,0.3c-0.1,0-0.3,0-0.4-0.1l-4.6-2.7c-0.1-0.1-0.2-0.2-0.3-0.3
	l-0.3-1.2c0-0.1,0-0.1,0-0.2c0-0.1,0-0.2,0.1-0.3l1.2-2c-1.3-0.5-2.6-0.9-4-1.1v3.3c0,0.3-0.3,0.6-0.6,0.6h-5.3
	c-0.1,0-0.3-0.1-0.4-0.2l-0.8-0.8c-0.1-0.1-0.2-0.2-0.2-0.4V8.4c-1.3,0.2-2.6,0.5-3.9,1l1.7,2.9c0.1,0.1,0.1,0.2,0.1,0.3
	c0,0.2-0.1,0.4-0.3,0.5l-4.6,2.6c-0.1,0.1-0.3,0.1-0.4,0.1l-1.2-0.3c-0.1,0-0.3-0.1-0.3-0.3l-1.3-2.3c-1.1,0.9-2.1,1.9-3,3l3,1.7
	c0.2,0.1,0.3,0.3,0.3,0.5c0,0.1,0,0.2-0.1,0.3l-3.1,5.3c-0.2,0.3-0.5,0.4-0.8,0.2l-3.1-1.8c-0.5,1.3-0.9,2.7-1.1,4h2.7
	c0.1,0,0.3,0.1,0.4,0.2l0.8,0.8c0.1,0.1,0.2,0.2,0.2,0.4v5.4c0,0.3-0.3,0.6-0.6,0.6H8.2c0.2,1.4,0.6,2.8,1.1,4.1l3.1-1.8
	c0.3-0.2,0.6-0.1,0.8,0.2l3.1,5.3c0.1,0.1,0.1,0.2,0.1,0.3c0,0.2-0.1,0.4-0.3,0.5l-3,1.8c0.9,1,1.9,2,2.9,2.9l1.3-2.3
	c0.1-0.1,0.2-0.2,0.3-0.3l1.2-0.3c0.1,0,0.3,0,0.4,0.1l4.6,2.7c0.1,0.1,0.2,0.2,0.3,0.3c0,0.1,0,0.1,0,0.2c0,0.1,0,0.2-0.1,0.3
	L22.3,50.6z M3.8,42.4l2.5,4.3l5.3-3.1c0-0.1,0.1-0.1,0.2-0.2l3.1-1.8l-2.5-4.3L3.8,42.4z M48.1,43.4l5.6,3.3l2.5-4.3l-8.7-5
	l-2.5,4.3l2.8,1.6C48,43.2,48.1,43.3,48.1,43.4z M23.4,36.6l3.9,1.1l0.5-0.4c0.1-0.1,0.2-0.1,0.4-0.1h1v-0.5l-0.6,0
	c-0.1,0-0.2,0-0.3-0.1L27.6,36c0,0,0,0,0,0l-0.5-0.3c-0.1,0-0.1-0.1-0.2-0.1l-1.7-2.1h-0.6l-1.1,0.3l-0.1,0.5
	C23.5,34.9,23.5,36,23.4,36.6z M30.4,37.1h1c0.1,0,0.3,0.1,0.4,0.1l0.5,0.4l3.9-1.1c0-0.6-0.1-1.6-0.2-2.2L36,33.9l-1.1-0.3h-0.6
	l-1.7,2.1c0,0.1-0.1,0.1-0.2,0.1L32.1,36c0,0,0,0,0,0l-0.8,0.5c-0.1,0-0.2,0.1-0.3,0.1l-0.6,0L30.4,37.1L30.4,37.1z M28.9,35.5
	l0.9,0l0.9,0l0.3-0.2l-0.8-2.7c0-0.1,0-0.1,0-0.2v-4.9c0-0.1,0-0.1,0-0.2l0.8-2.7l-0.3-0.2l-0.9,0l-0.9,0l-0.3,0.2l0.8,2.7
	c0,0.1,0,0.1,0,0.2v4.9c0,0.1,0,0.1,0,0.2l-0.8,2.7L28.9,35.5z M31.4,32.3l0.6,2.3l1.5-1.8l0.3-1.4v-0.9h-2.4L31.4,32.3L31.4,32.3z
	 M26.1,32.7l1.5,1.8l0.6-2.3v-1.8h-2.4v0.9L26.1,32.7z M52.4,32.5h6.5v-5h-9.5L48.8,28v4.4h3.2C52.2,32.4,52.3,32.5,52.4,32.5z
	 M1.1,32.5h6.1c0.1-0.1,0.2-0.1,0.3-0.1h3.6V28l-0.5-0.5H1.1V32.5z M44.3,31h3.4v-2h-3.4V31z M39.7,31h1.7v-2h-1.7V31z M35.1,31h1.4
	v-2h-1.4V31z M31.4,29.4h2.4v-0.9l-0.3-1.4l-1.5-1.8l-0.6,2.3L31.4,29.4L31.4,29.4z M25.8,29.4h2.4v-1.8l-0.6-2.3l-1.5,1.8l-0.3,1.4
	V29.4z M34.3,26.3h0.6L36,26l0.1-0.5c0.1-0.6,0.1-1.6,0.2-2.2l-3.9-1.1l-0.5,0.4c-0.1,0.1-0.2,0.1-0.4,0.1h-1v0.5l0.6,0
	c0.1,0,0.2,0,0.3,0.1l0.8,0.5c0,0,0,0,0,0l0.5,0.3c0.1,0,0.1,0.1,0.2,0.1L34.3,26.3z M24.7,26.3h0.6l1.7-2.1c0-0.1,0.1-0.1,0.2-0.1
	l0.5-0.3c0,0,0,0,0,0l0.8-0.5c0.1,0,0.2-0.1,0.3-0.1l0.6,0v-0.5h-1c-0.1,0-0.3-0.1-0.4-0.1l-0.5-0.4l-3.9,1.1c0,0.6,0.1,1.6,0.2,2.2
	l0.1,0.5L24.7,26.3z M9.1,20.8c0.1,0,0.2,0,0.3,0.1l3.1,1.8l2.5-4.3l-8.7-5l-2.5,4.3L9.1,20.8z M45,18.3l2.5,4.3l2.8-1.6
	c0.1,0,0.2-0.1,0.3-0.1l5.6-3.3l-2.5-4.3L45,18.3z M37.7,12.6l3.9,2.3l1.6-2.8c0-0.1,0.1-0.1,0.1-0.2l3.3-5.7l-4.3-2.5L37.5,12
	L37.7,12.6z M18.2,14.4l0.7,0.2l3.9-2.2l-4.9-8.7l-4.4,2.5l3.1,5.5c0.1,0,0.1,0.1,0.1,0.2L18.2,14.4z M28,11.1h4.5v-10h-5v9.5
	L28,11.1z"/>
</svg>
