<?xml version="1.0" encoding="utf-8"?>
<!-- Generator: Adobe Illustrator 19.0.1, SVG Export Plug-In . SVG Version: 6.00 Build 0)  -->
<svg version="1.1" id="Layer_1" xmlns="http://www.w3.org/2000/svg" xmlns:xlink="http://www.w3.org/1999/xlink" x="0px" y="0px"
	 viewBox="0 0 230 84" style="enable-background:new 0 0 230 84;" xml:space="preserve">
<style type="text/css">
	.st0{display:none;fill:#262626;}
	.st1{fill:#FFFFFF;}
	.st2{clip-path:url(#SVGID_2_);}
	.st3{fill:#0F0F0F;}
	.st4{clip-path:url(#SVGID_4_);}
	.st5{clip-path:url(#SVGID_6_);}
	.st6{fill:#00ABCF;}
</style>
<rect y="0.2" class="st0" width="230" height="83.8"/>
<g>
	<path class="st1" d="M23,1.2c-9.9,0-18,8.1-18,18s8.1,18,18,18s18-8.1,18-18S32.9,1.2,23,1.2z M16.3,31.4h-5.1V15.1h5.1V31.4z
		 M13.7,12.8c-1.6,0-2.9-1.3-2.9-2.9c0-1.6,1.3-2.9,2.9-2.9c1.6,0,2.9,1.3,2.9,2.9C16.7,11.5,15.3,12.8,13.7,12.8z M35.2,31.4h-5.1
		v-7.9c0-1.9,0-4.3-2.6-4.3c-2.6,0-3,2.1-3,4.2v8.1h-5.1V15.1h4.9v2.2h0.1c0.7-1.3,2.3-2.6,4.8-2.6c5.1,0,6.1,3.4,6.1,7.8
		C35.2,22.4,35.2,31.4,35.2,31.4z"/>
</g>
<g>
	<path class="st1" d="M84.6,10.4C83,7.5,80.8,5.3,78,3.6c-2.8-1.6-5.8-2.5-9-2.5c-3.3,0-6.3,0.8-9,2.5c-2.8,1.6-4.9,3.9-6.6,6.7
		c-1.6,2.8-2.4,5.9-2.4,9.3c0,4,1.1,7.6,3.4,10.8c2.3,3.2,5.2,5.4,8.9,6.7c0.4,0.1,0.7,0,0.9-0.2c0.2-0.2,0.3-0.4,0.3-0.7
		c0,0,0-0.5,0-1.3c0-0.8,0-1.5,0-2.1L64,32.9C63.6,33,63.2,33,62.7,33c-0.5,0-1.1-0.1-1.6-0.2c-0.6-0.1-1.1-0.3-1.6-0.7
		c-0.5-0.4-0.8-0.9-1-1.5l-0.2-0.6c-0.2-0.4-0.4-0.8-0.7-1.2c-0.3-0.4-0.7-0.8-1-0.9l-0.2-0.1c-0.1-0.1-0.2-0.2-0.3-0.3
		c-0.1-0.1-0.2-0.2-0.2-0.3c0-0.1,0-0.2,0.1-0.3c0.1-0.1,0.4-0.1,0.7-0.1l0.5,0.1c0.3,0.1,0.7,0.3,1.2,0.6c0.5,0.3,0.8,0.7,1.1,1.2
		c0.4,0.7,0.8,1.2,1.3,1.5c0.5,0.3,1,0.5,1.5,0.5s1,0,1.3-0.1c0.4-0.1,0.7-0.2,1.1-0.4c0.1-1.1,0.5-1.9,1.1-2.5
		c-0.9-0.1-1.7-0.2-2.4-0.4c-0.7-0.2-1.4-0.5-2.2-0.9c-0.8-0.4-1.4-1-1.9-1.6c-0.5-0.6-0.9-1.5-1.2-2.5c-0.3-1-0.5-2.2-0.5-3.6
		c0-1.9,0.6-3.6,1.9-4.9c-0.6-1.5-0.5-3.1,0.2-4.9c0.5-0.1,1.1,0,2,0.3c0.9,0.4,1.5,0.7,2,0.9c0.4,0.3,0.7,0.5,1,0.6
		c1.5-0.4,3-0.6,4.5-0.6s3,0.2,4.5,0.6l0.9-0.6c0.6-0.4,1.3-0.7,2.2-1.1c0.8-0.3,1.5-0.4,1.9-0.3c0.7,1.8,0.8,3.4,0.2,4.9
		c1.2,1.4,1.9,3,1.9,4.9c0,1.4-0.2,2.6-0.5,3.6c-0.3,1-0.7,1.9-1.2,2.5c-0.5,0.6-1.1,1.2-1.9,1.6c-0.8,0.4-1.5,0.7-2.2,0.9
		c-0.7,0.2-1.5,0.3-2.4,0.4c0.8,0.7,1.2,1.9,1.2,3.4v5.1c0,0.3,0.1,0.5,0.3,0.7c0.2,0.2,0.5,0.2,0.9,0.2c3.6-1.2,6.6-3.5,8.9-6.7
		c2.3-3.2,3.4-6.8,3.4-10.8C87,16.3,86.2,13.2,84.6,10.4z"/>
</g>
<g>
	<g>
		<g>
			<path class="st1" d="M115,1.2c-9.9,0-18,8.1-18,18s8.1,18,18,18s18-8.1,18-18C133,9.2,124.9,1.2,115,1.2z M119.7,19.2l-2.9,0
				l0,10.8h-4V19.2H110v-3.7l2.7,0l0-2.2c0-3,0.8-4.9,4.4-4.9h3v3.7h-1.9c-1.4,0-1.5,0.5-1.5,1.5l0,1.9h3.3L119.7,19.2z"/>
		</g>
	</g>
</g>
<g>
	<defs>
		<path id="SVGID_1_" d="M23,47.2c-9.9,0-18,8.1-18,18s8.1,18,18,18s18-8.1,18-18S32.9,47.2,23,47.2z M16.3,77.4h-5.1V61.1h5.1V77.4
			z M13.7,58.8c-1.6,0-2.9-1.3-2.9-2.9c0-1.6,1.3-2.9,2.9-2.9c1.6,0,2.9,1.3,2.9,2.9C16.7,57.5,15.3,58.8,13.7,58.8z M35.2,77.4
			h-5.1v-7.9c0-1.9,0-4.3-2.6-4.3c-2.6,0-3,2.1-3,4.2v8.1h-5.1V61.1h4.9v2.2h0.1c0.7-1.3,2.3-2.6,4.8-2.6c5.1,0,6.1,3.4,6.1,7.8
			C35.2,68.4,35.2,77.4,35.2,77.4z"/>
	</defs>
	<clipPath id="SVGID_2_">
		<use xlink:href="#SVGID_1_"  style="overflow:visible;"/>
	</clipPath>
	<g class="st2">
		<g>
			<g>
				<path class="st3" d="M23,47.2c-9.9,0-18,8.1-18,18s8.1,18,18,18s18-8.1,18-18C41,55.2,32.9,47.2,23,47.2z M18,61.4l2.7,0l0-2.2
					c0-3-3.8,2.8-0.2,2.8l1.6-1.3l1,2.9l1.2-0.4c0.6-5.1,0.5-4.6,0.5-3.6l0,1.9L18,61.4z"/>
			</g>
		</g>
	</g>
	<g style="opacity:0.1;clip-path:url(#SVGID_2_);">
		
			<image style="overflow:visible;" width="800" height="600" xlink:href="0914eafd2d8deca8ffae4665e4a93d17_screeshots_1.jpeg"  transform="matrix(0.2175 0 0 0.2175 -133 47.1666)">
		</image>
	</g>
</g>
<g>
	<defs>
		<path id="SVGID_3_" d="M84.6,56.4c-1.6-2.8-3.8-5.1-6.6-6.7c-2.8-1.6-5.8-2.5-9-2.5c-3.3,0-6.3,0.8-9,2.5
			c-2.8,1.6-4.9,3.9-6.6,6.7c-1.6,2.8-2.4,5.9-2.4,9.3c0,4,1.1,7.6,3.4,10.8c2.3,3.2,5.2,5.4,8.9,6.7c0.4,0.1,0.7,0,0.9-0.2
			c0.2-0.2,0.3-0.4,0.3-0.7c0,0,0-0.5,0-1.3c0-0.8,0-1.5,0-2.1L64,78.9C63.6,79,63.2,79,62.7,79c-0.5,0-1.1-0.1-1.6-0.2
			c-0.6-0.1-1.1-0.3-1.6-0.7c-0.5-0.4-0.8-0.9-1-1.5l-0.2-0.6c-0.2-0.4-0.4-0.8-0.7-1.2c-0.3-0.4-0.7-0.8-1-0.9l-0.2-0.1
			c-0.1-0.1-0.2-0.2-0.3-0.3c-0.1-0.1-0.2-0.2-0.2-0.3c0-0.1,0-0.2,0.1-0.3c0.1-0.1,0.4-0.1,0.7-0.1l0.5,0.1
			c0.3,0.1,0.7,0.3,1.2,0.6c0.5,0.3,0.8,0.7,1.1,1.2c0.4,0.7,0.8,1.2,1.3,1.5c0.5,0.3,1,0.5,1.5,0.5s1,0,1.3-0.1
			c0.4-0.1,0.7-0.2,1.1-0.4c0.1-1.1,0.5-1.9,1.1-2.5c-0.9-0.1-1.7-0.2-2.4-0.4c-0.7-0.2-1.4-0.5-2.2-0.9c-0.8-0.4-1.4-1-1.9-1.6
			c-0.5-0.6-0.9-1.5-1.2-2.5c-0.3-1-0.5-2.2-0.5-3.6c0-1.9,0.6-3.6,1.9-4.9c-0.6-1.5-0.5-3.1,0.2-4.9c0.5-0.1,1.1,0,2,0.3
			c0.9,0.4,1.5,0.7,2,0.9c0.4,0.3,0.7,0.5,1,0.6c1.5-0.4,3-0.6,4.5-0.6s3,0.2,4.5,0.6l0.9-0.6c0.6-0.4,1.3-0.7,2.2-1.1
			c0.8-0.3,1.5-0.4,1.9-0.3c0.7,1.8,0.8,3.4,0.2,4.9c1.2,1.4,1.9,3,1.9,4.9c0,1.4-0.2,2.6-0.5,3.6c-0.3,1-0.7,1.9-1.2,2.5
			c-0.5,0.6-1.1,1.2-1.9,1.6c-0.8,0.4-1.5,0.7-2.2,0.9c-0.7,0.2-1.5,0.3-2.4,0.4c0.8,0.7,1.2,1.9,1.2,3.4v5.1c0,0.3,0.1,0.5,0.3,0.7
			c0.2,0.2,0.5,0.2,0.9,0.2c3.6-1.2,6.6-3.5,8.9-6.7c2.3-3.2,3.4-6.8,3.4-10.8C87,62.3,86.2,59.2,84.6,56.4z"/>
	</defs>
	<clipPath id="SVGID_4_">
		<use xlink:href="#SVGID_3_"  style="overflow:visible;"/>
	</clipPath>
	<g class="st4">
		<g>
			<g>
				<path class="st3" d="M69,47.2c-9.9,0-18,8.2-18,18.4S59.1,84,69,84s18-8.2,18-18.4C87,55.4,78.9,47.2,69,47.2z M73.7,65.6
					l-2.9,0l0,11h-4v-11H64v-3.8l2.7,0l0-2.2c0-3.1-0.7-1.9,2.9-1.9l3.6,0.2l0.8,0.5h-1.9c-1.4,0-1.5,0.5-1.5,1.5l0,1.9H74
					L73.7,65.6z"/>
			</g>
		</g>
	</g>
	<g style="opacity:0.1;clip-path:url(#SVGID_4_);">
		
			<image style="overflow:visible;" width="800" height="600" xlink:href="0914eafd2d8deca8ffae4665e4a93d17_screeshots_1.jpeg"  transform="matrix(0.2175 0 0 0.2175 -85.4548 46.0762)">
		</image>
	</g>
</g>
<g>
	<defs>
		<path id="SVGID_5_" d="M115,47.2c-9.9,0-18,8.1-18,18s8.1,18,18,18s18-8.1,18-18C133,55.2,124.9,47.2,115,47.2z M119.7,65.2
			l-2.9,0l0,10.8h-4V65.2H110v-3.7l2.7,0l0-2.2c0-3,0.8-4.9,4.4-4.9h3v3.7h-1.9c-1.4,0-1.5,0.5-1.5,1.5l0,1.9h3.3L119.7,65.2z"/>
	</defs>
	<clipPath id="SVGID_6_">
		<use xlink:href="#SVGID_5_"  style="overflow:visible;"/>
	</clipPath>
	<g class="st5">
		<g>
			<g>
				<path class="st3" d="M115,47.2c-9.9,0-18,8.1-18,18s8.1,18,18,18s18-8.1,18-18C133,55.2,124.9,47.2,115,47.2z M119.7,65.2
					l-2.9,0l0,10.8h-4V65.2H110v-3.7l2.7,0l0-2.2c0-3,0.8-4.9,4.4-4.9h3v3.7h-1.9c-1.4,0-1.5,0.5-1.5,1.5l0,1.9h3.3L119.7,65.2z"/>
			</g>
		</g>
	</g>
	<g style="opacity:0.1;clip-path:url(#SVGID_6_);">
		
			<image style="overflow:visible;" width="800" height="600" xlink:href="0914eafd2d8deca8ffae4665e4a93d17_screeshots_1.jpeg"  transform="matrix(0.2175 0 0 0.2175 -41 47.1678)">
		</image>
	</g>
</g>
<g>
	<path id="Skype" class="st1" d="M177.5,21.8c0.1-0.8,0.2-1.7,0.2-2.6c0-9.2-7.5-16.7-16.7-16.7c-0.9,0-1.8,0.1-2.6,0.2
		c-1.5-1-3.4-1.5-5.3-1.5c-5.6,0-10.1,4.5-10.1,10.1c0,1.9,0.6,3.8,1.5,5.3c-0.1,0.9-0.2,1.7-0.2,2.6c0,9.2,7.5,16.7,16.7,16.7
		c0.9,0,1.8-0.1,2.6-0.2c1.5,0.9,3.4,1.5,5.3,1.5c5.6,0,10.1-4.5,10.1-10.1C179,25.1,178.4,23.3,177.5,21.8z M168.9,26.8
		c-0.7,1-1.7,1.8-3.1,2.4c-1.4,0.6-3,0.9-4.8,0.9c-2.2,0-4.1-0.4-5.5-1.2c-1-0.6-1.9-1.3-2.5-2.3c-0.6-0.9-1-1.9-1-2.8
		c0-0.5,0.2-1,0.6-1.4c0.4-0.4,0.9-0.6,1.5-0.6c0.5,0,0.9,0.1,1.3,0.4c0.3,0.3,0.6,0.7,0.9,1.3c0.3,0.7,0.6,1.2,0.9,1.6
		c0.3,0.4,0.8,0.8,1.4,1.1c0.6,0.3,1.4,0.4,2.3,0.4c1.3,0,2.4-0.3,3.2-0.9c0.8-0.6,1.2-1.3,1.2-2.1c0-0.7-0.2-1.2-0.7-1.6
		c-0.4-0.4-1-0.7-1.7-1c-0.7-0.2-1.7-0.5-2.9-0.7c-1.6-0.4-3-0.8-4.1-1.2c-1.1-0.5-2-1.1-2.6-1.9c-0.6-0.8-1-1.9-1-3.1
		c0-1.2,0.3-2.2,1-3.1c0.7-0.9,1.7-1.6,3-2.1c1.3-0.5,2.8-0.7,4.5-0.7c1.4,0,2.6,0.2,3.6,0.5c1,0.3,1.9,0.7,2.5,1.3
		c0.7,0.5,1.2,1.1,1.5,1.7c0.3,0.6,0.5,1.2,0.5,1.7c0,0.5-0.2,1-0.6,1.4c-0.4,0.4-0.9,0.6-1.5,0.6c-0.5,0-0.9-0.1-1.2-0.4
		c-0.3-0.3-0.6-0.6-0.9-1.2c-0.4-0.8-0.9-1.4-1.5-1.8c-0.5-0.4-1.5-0.6-2.7-0.6c-1.2,0-2.1,0.2-2.8,0.7c-0.7,0.5-1,1-1,1.7
		c0,0.4,0.1,0.7,0.3,1c0.2,0.3,0.6,0.5,1,0.8c0.4,0.2,0.9,0.4,1.3,0.5c0.4,0.1,1.2,0.3,2.2,0.5c1.3,0.3,2.4,0.6,3.4,0.9
		c1,0.3,1.9,0.7,2.6,1.2c0.7,0.5,1.3,1.1,1.7,1.8c0.4,0.7,0.6,1.6,0.6,2.7C170,24.6,169.6,25.7,168.9,26.8z"/>
</g>
<g>
	<g>
		<path class="st1" d="M192.5,9.6c0.5,0.3,1.8,1.3,4.1,2.8c2.3,1.6,4,2.8,5.3,3.6c0.1,0.1,0.4,0.3,0.9,0.6c0.4,0.3,0.8,0.6,1.1,0.8
			c0.3,0.2,0.6,0.4,1,0.6c0.4,0.2,0.8,0.4,1.2,0.5c0.4,0.1,0.7,0.2,1,0.2h0h0c0.3,0,0.6-0.1,1-0.2c0.4-0.1,0.7-0.3,1.2-0.5
			c0.4-0.2,0.8-0.5,1-0.6c0.3-0.2,0.6-0.4,1.1-0.8c0.4-0.3,0.7-0.5,0.9-0.6c1.2-0.8,4.4-3,9.4-6.5c1-0.7,1.8-1.5,2.5-2.4
			c0.7-1,1-2,1-3c0-0.9-0.3-1.6-1-2.2c-0.6-0.6-1.4-0.9-2.3-0.9h-29.6c-1,0-1.8,0.3-2.4,1c-0.6,0.7-0.8,1.6-0.8,2.6
			c0,0.8,0.4,1.7,1.1,2.7C190.8,8.3,191.6,9.1,192.5,9.6z"/>
		<path class="st1" d="M223,11.8c-4.4,2.9-7.7,5.2-10,6.9c-0.8,0.6-1.4,1-1.9,1.3c-0.5,0.3-1.1,0.6-1.9,1c-0.8,0.3-1.5,0.5-2.2,0.5
			h0h0c-0.7,0-1.4-0.2-2.2-0.5c-0.8-0.3-1.4-0.6-1.9-1c-0.5-0.3-1.1-0.7-1.9-1.3c-1.8-1.3-5.1-3.6-10-6.9c-0.8-0.5-1.4-1.1-2-1.7
			v15.8c0,0.9,0.3,1.6,0.9,2.2c0.6,0.6,1.4,0.9,2.3,0.9h29.6c0.9,0,1.6-0.3,2.3-0.9c0.6-0.6,0.9-1.4,0.9-2.2V10
			C224.4,10.7,223.8,11.2,223,11.8z"/>
	</g>
</g>
<g>
	<g>
		<g>
			<path class="st1" d="M178.2,75.6l-5.6-5.6c-1.1-1.1-2.9-1.1-4.1,0.1l-2.8,2.8c-0.2-0.1-0.4-0.2-0.6-0.3c-1.8-1-4.2-2.3-6.7-4.9
				c-2.6-2.6-3.9-5-4.9-6.8c-0.1-0.2-0.2-0.4-0.3-0.5l1.9-1.9l0.9-0.9c1.1-1.2,1.2-3,0.1-4.1l-5.6-5.6c-1.1-1.1-2.9-1.1-4.1,0.1
				l-1.6,1.6l0,0c-0.5,0.7-1,1.4-1.3,2.3c-0.3,0.8-0.5,1.6-0.6,2.3c-0.7,6.1,2,11.7,9.6,19.2c10.4,10.5,18.8,9.7,19.2,9.6
				c0.8-0.1,1.5-0.3,2.3-0.6c0.8-0.3,1.6-0.8,2.3-1.3l0,0l1.6-1.6C179.3,78.6,179.3,76.8,178.2,75.6z"/>
		</g>
	</g>
</g>
</svg>
